<?xml version="1.0" encoding="UTF-8"?>
<svg id="Capa_2" data-name="Capa 2" xmlns="http://www.w3.org/2000/svg" xmlns:xlink="http://www.w3.org/1999/xlink" viewBox="0 0 405 405">
  <defs>
    <style>
      .cls-1 {
        fill: #df0019;
        filter: url(#drop-shadow-1);
        stroke: #ff3e3e;
        stroke-miterlimit: 10;
        stroke-width: 2.44px;
      }

      .cls-2 {
        stroke-width: 0px;
      }
    </style>
    <filter id="drop-shadow-1" filterUnits="userSpaceOnUse">
      <feOffset dx="0" dy="0"/>
      <feGaussianBlur result="blur" stdDeviation="20"/>
      <feFlood flood-color="red" flood-opacity="1"/>
      <feComposite in2="blur" operator="in"/>
      <feComposite in="SourceGraphic"/>
    </filter>
  </defs>
  <g id="Capa_1-2" data-name="Capa 1">
    <g>
      <circle class="cls-1" cx="202.31" cy="202.24" r="140.63"/>
      <path class="cls-2" d="m202.31,229.54c-16.35,0-31.76,7.19-42.33,19.81-4.13,4.93-3.42,12.31,1.53,16.45s12.34,3.53,16.47-1.46c12.1-14.44,36.54-14.44,48.64,0,3.96,4.75,11.33,5.79,16.47,1.46,4.96-4.14,5.61-11.51,1.53-16.45-10.6-12.59-26-19.81-42.33-19.81Zm-23.4-35.1c5.02,0,9.68-3.29,11.22-8.35,1.85-6.13-1.71-12.71-7.85-14.57l-39.02-11.7c-6.26-1.89-12.75,1.65-14.58,7.86-1.83,6.18,1.68,12.76,7.87,14.57l13.75,4.14c-1.52,2.39-3.03,5.02-3.03,8.04,0,8.59,7.01,15.6,15.63,15.6,9.09,0,16.01-6.92,16.01-15.6Zm97.01-26.76c-1.83-6.22-8.32-9.69-14.58-7.86l-39.02,11.7c-6.14,1.83-9.68,8.41-7.85,14.57,1.54,5.09,6.27,8.36,11.24,8.36,0,8.65,6.92,15.6,15.16,15.6s15.63-6.95,15.63-15.6c0-3.05-1.11-5.73-2.64-8.1l13.75-4.14c6.65-1.75,10.16-8.33,8.31-14.52Zm-73.61-90.24c-68.93,0-124.8,55.87-124.8,124.8s55.87,124.8,124.8,124.8,124.8-55.87,124.8-124.8-55.87-124.8-124.8-124.8Zm0,226.2c-55.92,0-101.4-45.49-101.4-101.4s45.48-101.4,101.4-101.4,101.4,45.49,101.4,101.4-45.48,101.4-101.4,101.4Z"/>
    </g>
  </g>
</svg>