<?xml version="1.0" encoding="UTF-8"?>
<svg id="Capa_2" data-name="Capa 2" xmlns="http://www.w3.org/2000/svg" xmlns:xlink="http://www.w3.org/1999/xlink" viewBox="0 0 405 405">
  <defs>
    <style>
      .cls-1 {
        fill: #df5700;
        filter: url(#drop-shadow-1);
        stroke: #df8043;
        stroke-miterlimit: 10;
        stroke-width: 2.44px;
      }

      .cls-2 {
        stroke-width: 0px;
      }
    </style>
    <filter id="drop-shadow-1" filterUnits="userSpaceOnUse">
      <feOffset dx="0" dy="0"/>
      <feGaussianBlur result="blur" stdDeviation="20"/>
      <feFlood flood-color="#ff5b00" flood-opacity="1"/>
      <feComposite in2="blur" operator="in"/>
      <feComposite in="SourceGraphic"/>
    </filter>
  </defs>
  <g id="Capa_1-2" data-name="Capa 1">
    <g>
      <circle class="cls-1" cx="202.66" cy="202.24" r="140.63"/>
      <path class="cls-2" d="m202.66,217.84c-17.36,0-43.27,10.36-46.7,29.86-1,5.73,4.37,10.48,9.97,8.78,15.22-4.61,28.97-7.43,36.72-7.43s21.49,2.8,36.72,7.43c5.55,1.71,10.98-3.05,9.97-8.78-3.4-19.48-29.34-29.86-46.69-29.86Zm-23.4-39c0-8.65-6.97-15.6-15.64-15.6s-15.59,6.95-15.59,15.6,6.97,15.6,15.59,15.6,15.64-6.92,15.64-15.6Zm62.4-15.6c-8.68,0-15.64,6.95-15.64,15.6s6.97,15.6,15.64,15.6,15.59-6.95,15.59-15.6-6.96-15.6-15.59-15.6Zm-39-85.8c-68.93,0-124.8,55.87-124.8,124.8s55.87,124.8,124.8,124.8,124.8-55.87,124.8-124.8-55.87-124.8-124.8-124.8Zm0,226.2c-55.92,0-101.4-45.49-101.4-101.4s45.48-101.4,101.4-101.4,101.4,45.49,101.4,101.4-45.48,101.4-101.4,101.4Z"/>
    </g>
  </g>
</svg>