<?xml version="1.0" encoding="UTF-8"?>
<svg id="Capa_2" data-name="Capa 2" xmlns="http://www.w3.org/2000/svg" xmlns:xlink="http://www.w3.org/1999/xlink" viewBox="0 0 404 405">
  <defs>
    <style>
      .cls-1 {
        fill: #dfc600;
        filter: url(#drop-shadow-1);
        stroke: #ffe200;
        stroke-miterlimit: 10;
        stroke-width: 2.44px;
      }

      .cls-2 {
        stroke-width: 0px;
      }
    </style>
    <filter id="drop-shadow-1" filterUnits="userSpaceOnUse">
      <feOffset dx="0" dy="0"/>
      <feGaussianBlur result="blur" stdDeviation="20"/>
      <feFlood flood-color="#ffe600" flood-opacity="1"/>
      <feComposite in2="blur" operator="in"/>
      <feComposite in="SourceGraphic"/>
    </filter>
  </defs>
  <g id="Capa_1-2" data-name="Capa 1">
    <g>
      <circle class="cls-1" cx="202" cy="202.24" r="140.63"/>
      <path class="cls-2" d="m244.9,233.44h-86.24c-6.44,0-11.69,5.24-11.69,11.7s5.26,11.7,11.69,11.7h85.85c6.44,0,11.69-5.24,11.69-11.7s-4.87-11.7-11.3-11.7Zm-82.34-39c8.68,0,15.61-6.95,15.61-15.6s-6.93-15.6-15.61-15.6-15.6,6.95-15.6,15.6,7.41,15.6,15.6,15.6Zm78.44-31.2c-8.68,0-15.61,6.95-15.61,15.6s6.93,15.6,15.61,15.6,15.6-6.95,15.6-15.6-6.97-15.6-15.6-15.6Zm-39-85.8c-68.93,0-124.8,55.87-124.8,124.8s55.87,124.8,124.8,124.8,124.8-55.87,124.8-124.8-55.87-124.8-124.8-124.8Zm0,226.2c-55.92,0-101.4-45.49-101.4-101.4s45.48-101.4,101.4-101.4,101.4,45.49,101.4,101.4-45.48,101.4-101.4,101.4Z"/>
    </g>
  </g>
</svg>