<?xml version="1.0" encoding="UTF-8"?>
<svg id="Capa_2" data-name="Capa 2" xmlns="http://www.w3.org/2000/svg" xmlns:xlink="http://www.w3.org/1999/xlink" viewBox="0 0 405 405">
  <defs>
    <style>
      .cls-1 {
        fill: #c4ef80;
        filter: url(#drop-shadow-1);
        stroke: #beff59;
        stroke-miterlimit: 10;
        stroke-width: 2.44px;
      }

      .cls-2 {
        stroke-width: 0px;
      }
    </style>
    <filter id="drop-shadow-1" filterUnits="userSpaceOnUse">
      <feOffset dx="0" dy="0"/>
      <feGaussianBlur result="blur" stdDeviation="20"/>
      <feFlood flood-color="#afff00" flood-opacity="1"/>
      <feComposite in2="blur" operator="in"/>
      <feComposite in="SourceGraphic"/>
    </filter>
  </defs>
  <g id="Capa_1-2" data-name="Capa 1">
    <g>
      <circle class="cls-1" cx="202.34" cy="202.24" r="140.63"/>
      <path class="cls-2" d="m241.35,194.44c8.62,0,15.6-6.95,15.6-15.6s-6.98-15.6-15.6-15.6-15.61,6.95-15.61,15.6,6.93,15.6,15.61,15.6Zm-78.44,0c8.68,0,15.61-6.95,15.61-15.6s-6.93-15.6-15.61-15.6-15.6,6.95-15.6,15.6,7.41,15.6,15.6,15.6Zm80.39,35.39c-10.14,12.19-25.11,19.21-40.95,19.21s-30.82-6.95-40.97-19.2c-4.13-5-11.51-5.61-16.47-1.52-4.96,4.15-5.59,11.51-1.5,16.48,14.58,17.55,36.13,27.66,58.94,27.66s44.33-10.11,58.94-27.66c4.19-4.93,3.48-12.31-1.48-16.45-4.96-4.12-12.37-3.49-16.51,1.49Zm-40.95-152.4c-68.93,0-124.8,55.87-124.8,124.8s55.87,124.8,124.8,124.8,124.8-55.87,124.8-124.8-55.87-124.8-124.8-124.8Zm0,226.2c-55.92,0-101.4-45.49-101.4-101.4s45.48-101.4,101.4-101.4,101.4,45.49,101.4,101.4-45.48,101.4-101.4,101.4Z"/>
    </g>
  </g>
</svg>